<?xml version="1.0"?>
<svg xmlns="http://www.w3.org/2000/svg" id="Solid" viewBox="0 0 512 512" width="512" height="512"><path d="M354.734,78.51,238.459,32H220.117L191.545,72H232a8,8,0,0,1,0,16H184v8a8.009,8.009,0,0,0,8,8h84.223A39.784,39.784,0,0,1,312,126.111l39.155,78.311a8,8,0,0,1-.5,8.016c-12,18-14.648,66.393-14.656,83.544,0,.088.487,28.061,20.438,41.362a8,8,0,1,1-8.876,13.312c-21.945-14.63-26.417-41.133-27.327-50.9C314.1,294.479,295.144,280,272,280c-29.239,0-51.343,14.51-51.562,14.656a8,8,0,0,1-9.088-.146C210.813,294.127,156.7,256,104,256c-26.96,0-45.761,5.912-56.786,10.871A77.306,77.306,0,0,0,32,275.714V480h90.456l22.054-58.809a7.987,7.987,0,0,1,5.828-5.112,7.815,7.815,0,0,1,7.278,2.221c1.1.987,25.211,21.7,98.384,21.7,27.014,0,75.14-12.5,132.039-34.291,49.6-19,83.844-36.594,91.437-42.966C470.933,255.949,367.783,98.093,354.734,78.51ZM233.548,377.769a7.949,7.949,0,0,1-.748.66l-35.89,27.89a8,8,0,1,1-9.819-12.634l35.468-27.561a23.954,23.954,0,0,0,6.238-21.347l-4.641-23.206a8,8,0,1,1,15.689-3.138l4.642,23.207A39.923,39.923,0,0,1,233.548,377.769Z"/></svg>
